<svg version="1.1" xmlns="http://www.w3.org/2000/svg" xmlns:xlink="http://www.w3.org/1999/xlink" preserveAspectRatio="xMidYMid meet" viewBox="0 0 54 47" width="54" height="47"><defs><path d="M11.71 0.03L42.29 0.03L53.76 23.51L42.29 47L11.71 47L0.24 23.51L11.71 0.03Z" id="b7BXScLIgr"></path><linearGradient id="gradientd70cSWMw" gradientUnits="userSpaceOnUse" x1="27" y1="-0.02" x2="27" y2="45.98"><stop style="stop-color: #27a4f4;stop-opacity: 1" offset="0%"></stop><stop style="stop-color: #21a4f4;stop-opacity: 1" offset="0%"></stop><stop style="stop-color: #0b78ef;stop-opacity: 1" offset="100%"></stop></linearGradient><path d="M27.74 9.35L28.1 9.37L28.44 9.41L28.77 9.45L29.09 9.51L29.4 9.57L29.7 9.65L29.98 9.73L30.26 9.82L30.52 9.93L30.77 10.04L31.01 10.17L31.23 10.3L31.45 10.44L31.65 10.59L31.84 10.76L32.02 10.93L32.21 11.13L32.38 11.34L32.52 11.55L32.65 11.76L32.75 11.97L32.84 12.18L32.91 12.38L32.97 12.58L33.02 12.77L33.05 12.95L33.07 13.12L33.09 13.27L33.1 13.42L33.1 13.55L33.1 13.66L33.1 13.75L33.09 13.83L33.08 13.88L33.08 16.29L33.14 16.34L33.19 16.4L33.23 16.46L33.28 16.52L33.32 16.58L33.36 16.64L33.4 16.71L33.43 16.77L33.46 16.84L33.49 16.91L33.51 16.98L33.53 17.04L33.55 17.11L33.56 17.19L33.58 17.26L33.58 17.33L33.59 17.4L33.59 17.47L33.59 19.28L33.59 19.4L33.57 19.52L33.55 19.63L33.52 19.74L33.49 19.85L33.44 19.96L33.39 20.06L33.33 20.16L33.27 20.26L33.2 20.35L33.12 20.44L33.04 20.52L32.94 20.6L32.85 20.68L32.75 20.75L32.64 20.81L32.53 20.87L32.41 20.92L32.35 21.08L32.28 21.23L32.22 21.39L32.15 21.54L32.08 21.69L32 21.85L31.92 22L31.84 22.14L31.76 22.29L31.68 22.44L31.59 22.58L31.5 22.72L31.41 22.86L31.31 23L31.22 23.14L31.12 23.28L31.02 23.41L30.91 23.54L30.89 23.57L30.87 23.6L30.85 23.62L30.83 23.65L30.81 23.67L30.79 23.7L30.77 23.72L30.75 23.75L30.73 23.77L30.71 23.79L30.69 23.82L30.67 23.84L30.65 23.86L30.63 23.89L30.61 23.91L30.59 23.93L30.57 23.95L30.55 23.97L30.55 25.5L30.55 25.58L30.56 25.65L30.57 25.73L30.59 25.8L30.61 25.87L30.64 25.94L30.67 26.01L30.71 26.07L30.75 26.13L30.79 26.19L30.84 26.25L30.89 26.31L30.95 26.36L31.01 26.41L31.08 26.46L31.14 26.5L31.22 26.54L31.29 26.57L32.04 26.91L36.13 28.73L36.39 28.86L36.63 28.99L36.86 29.14L37.08 29.3L37.29 29.46L37.48 29.64L37.66 29.83L37.83 30.03L37.98 30.24L38.12 30.45L38.24 30.67L38.35 30.9L38.45 31.14L38.52 31.38L38.58 31.62L38.63 31.87L38.65 32.13L38.66 32.38L38.66 33.76L38.59 34.1L38.39 34.42L38.08 34.71L37.65 34.97L37.14 35.21L36.53 35.42L35.86 35.61L35.13 35.78L34.34 35.92L33.52 36.05L32.68 36.16L31.82 36.25L30.95 36.32L30.1 36.38L29.26 36.42L28.46 36.45L27.7 36.47L27 36.48L26.3 36.47L25.54 36.45L24.74 36.42L23.9 36.38L23.05 36.32L22.18 36.25L21.32 36.16L20.48 36.05L19.66 35.92L18.87 35.78L18.14 35.61L17.47 35.42L16.86 35.21L16.35 34.97L15.92 34.71L15.61 34.42L15.41 34.1L15.34 33.76L15.34 32.3L15.35 32.05L15.37 31.8L15.41 31.56L15.47 31.32L15.54 31.09L15.63 30.86L15.73 30.64L15.85 30.42L15.98 30.21L16.12 30.01L16.28 29.81L16.45 29.63L16.63 29.45L16.83 29.28L17.04 29.12L17.25 28.97L17.48 28.84L17.72 28.71L22.25 26.51L22.32 26.47L22.38 26.43L22.45 26.39L22.51 26.34L22.56 26.29L22.62 26.24L22.67 26.19L22.71 26.13L22.76 26.07L22.79 26.01L22.83 25.95L22.86 25.88L22.88 25.81L22.91 25.75L22.92 25.68L22.93 25.61L22.94 25.53L22.94 25.46L22.94 23.96L22.88 23.89L22.81 23.8L22.73 23.7L22.64 23.58L22.54 23.45L22.44 23.3L22.33 23.15L22.22 22.98L22.1 22.79L21.99 22.6L21.87 22.4L21.76 22.18L21.65 21.95L21.54 21.72L21.44 21.47L21.34 21.22L21.25 20.96L21.17 20.69L21.09 20.63L21.02 20.57L20.95 20.5L20.88 20.44L20.82 20.37L20.76 20.29L20.7 20.22L20.65 20.14L20.61 20.06L20.57 19.98L20.53 19.9L20.5 19.82L20.47 19.73L20.45 19.64L20.43 19.55L20.42 19.46L20.41 19.37L20.41 19.28L20.41 17.47L20.41 17.4L20.42 17.33L20.42 17.26L20.44 17.19L20.45 17.11L20.47 17.04L20.49 16.98L20.51 16.91L20.54 16.84L20.57 16.77L20.6 16.71L20.64 16.64L20.68 16.58L20.72 16.52L20.77 16.46L20.81 16.4L20.86 16.34L20.92 16.29L20.92 13.88L20.91 13.83L20.9 13.75L20.9 13.66L20.9 13.55L20.9 13.42L20.91 13.27L20.93 13.12L20.95 12.95L20.98 12.77L21.03 12.58L21.09 12.38L21.16 12.18L21.25 11.97L21.35 11.76L21.48 11.55L21.62 11.34L21.79 11.13L21.98 10.93L22.16 10.75L22.35 10.59L22.55 10.44L22.77 10.3L22.99 10.16L23.23 10.04L23.48 9.93L23.74 9.82L24.02 9.73L24.3 9.65L24.6 9.57L24.91 9.51L25.23 9.45L25.56 9.41L25.9 9.37L26.26 9.35L26.62 9.33L27 9.33L27.38 9.33L27.74 9.35ZM26.32 10.25L26 10.27L25.69 10.31L25.39 10.35L25.1 10.4L24.83 10.45L24.57 10.52L24.32 10.6L24.08 10.68L23.85 10.78L23.63 10.88L23.43 10.99L23.24 11.11L23.06 11.24L22.89 11.38L22.74 11.52L22.58 11.7L22.44 11.89L22.32 12.07L22.22 12.25L22.13 12.44L22.07 12.61L22.02 12.79L21.98 12.95L21.95 13.11L21.93 13.25L21.92 13.38L21.91 13.5L21.91 13.6L21.92 13.68L21.92 13.74L21.92 13.78L21.93 13.79L21.93 13.85L21.93 16.67L21.76 16.81L21.72 16.84L21.69 16.87L21.66 16.91L21.62 16.94L21.6 16.98L21.57 17.01L21.54 17.05L21.52 17.09L21.5 17.13L21.48 17.17L21.47 17.21L21.45 17.26L21.44 17.3L21.43 17.34L21.43 17.38L21.42 17.43L21.42 17.47L21.42 19.28L21.42 19.34L21.43 19.39L21.44 19.44L21.45 19.49L21.47 19.54L21.49 19.59L21.51 19.64L21.53 19.69L21.56 19.74L21.59 19.78L21.63 19.82L21.67 19.87L21.71 19.9L21.75 19.94L21.79 19.98L21.84 20.01L21.89 20.04L22.07 20.14L22.11 20.32L22.2 20.64L22.31 20.95L22.42 21.24L22.55 21.53L22.68 21.79L22.81 22.05L22.95 22.28L23.08 22.5L23.21 22.7L23.34 22.88L23.46 23.04L23.56 23.18L23.65 23.3L23.73 23.39L23.79 23.46L23.83 23.5L23.84 23.52L23.96 23.64L23.96 25.46L23.95 25.6L23.94 25.73L23.92 25.86L23.88 25.99L23.84 26.12L23.79 26.24L23.73 26.36L23.66 26.48L23.59 26.59L23.51 26.7L23.42 26.8L23.32 26.9L23.22 26.99L23.1 27.08L22.99 27.16L22.86 27.24L22.73 27.31L18.21 29.51L18.01 29.61L17.82 29.72L17.64 29.85L17.48 29.98L17.32 30.12L17.17 30.27L17.03 30.43L16.91 30.59L16.8 30.76L16.69 30.94L16.61 31.12L16.53 31.3L16.47 31.5L16.42 31.69L16.38 31.89L16.36 32.09L16.35 32.3L16.35 33.76L16.39 33.87L16.51 34L16.7 34.13L16.97 34.27L17.31 34.41L17.73 34.55L18.22 34.69L18.78 34.83L19.42 34.96L20.13 35.09L20.9 35.2L21.75 35.31L22.66 35.4L23.65 35.47L24.7 35.52L25.82 35.56L27 35.57L27.8 35.56L28.58 35.55L29.33 35.51L30.07 35.47L30.78 35.41L31.47 35.35L32.14 35.26L32.79 35.17L33.42 35.06L34.02 34.94L34.6 34.81L35.17 34.67L35.71 34.51L36.22 34.34L36.72 34.16L37.19 33.97L37.65 33.76L37.65 32.38L37.64 32.17L37.62 31.96L37.58 31.76L37.53 31.56L37.46 31.36L37.38 31.17L37.28 30.98L37.18 30.8L37.06 30.63L36.92 30.46L36.78 30.3L36.62 30.15L36.46 30.01L36.28 29.88L36.09 29.76L35.89 29.64L35.68 29.54L30.84 27.38L30.7 27.31L30.57 27.24L30.44 27.16L30.32 27.07L30.21 26.98L30.11 26.88L30.01 26.77L29.93 26.66L29.85 26.55L29.78 26.43L29.71 26.31L29.66 26.18L29.62 26.05L29.58 25.92L29.56 25.78L29.54 25.64L29.54 25.5L29.54 23.64L29.66 23.51L29.68 23.49L29.71 23.46L29.73 23.44L29.75 23.41L29.78 23.38L29.8 23.36L29.83 23.33L29.85 23.3L29.88 23.27L29.9 23.24L29.93 23.21L29.95 23.18L29.98 23.15L30.01 23.12L30.03 23.09L30.06 23.05L30.09 23.02L30.19 22.88L30.3 22.74L30.4 22.6L30.5 22.46L30.59 22.31L30.69 22.17L30.78 22.02L30.86 21.87L30.95 21.71L31.03 21.56L31.11 21.4L31.19 21.25L31.26 21.09L31.33 20.93L31.4 20.77L31.46 20.6L31.52 20.44L31.6 20.21L31.86 20.14L31.93 20.12L32 20.09L32.07 20.06L32.14 20.02L32.2 19.98L32.25 19.94L32.31 19.89L32.36 19.84L32.4 19.79L32.44 19.73L32.48 19.68L32.51 19.61L32.53 19.55L32.55 19.49L32.57 19.42L32.57 19.35L32.58 19.28L32.58 17.47L32.58 17.43L32.57 17.38L32.57 17.34L32.56 17.3L32.55 17.26L32.53 17.21L32.52 17.17L32.5 17.13L32.48 17.09L32.46 17.05L32.43 17.01L32.4 16.98L32.38 16.94L32.34 16.91L32.31 16.87L32.28 16.84L32.24 16.81L32.07 16.67L32.07 13.79L32.08 13.78L32.08 13.74L32.08 13.68L32.09 13.6L32.08 13.5L32.08 13.38L32.07 13.25L32.05 13.1L32.02 12.94L31.98 12.78L31.93 12.6L31.86 12.43L31.77 12.24L31.67 12.06L31.55 11.87L31.41 11.69L31.25 11.51L31.1 11.37L30.93 11.23L30.75 11.1L30.56 10.98L30.36 10.87L30.14 10.77L29.92 10.68L29.68 10.59L29.43 10.52L29.16 10.45L28.89 10.39L28.6 10.35L28.31 10.31L28 10.27L27.68 10.25L27.34 10.24L27 10.23L26.66 10.24L26.32 10.25Z" id="aRPy4BGFN"></path></defs><g><g><g><use xlink:href="#b7BXScLIgr" opacity="1" fill="url(#gradientd70cSWMw)"></use><g><use xlink:href="#b7BXScLIgr" opacity="1" fill-opacity="0" stroke="#000000" stroke-width="null" stroke-opacity="0"></use></g></g><g><use xlink:href="#aRPy4BGFN" opacity="1" fill="#ffffff" fill-opacity="1"></use><g><use xlink:href="#aRPy4BGFN" opacity="1" fill-opacity="0" stroke="#000000" stroke-width="1" stroke-opacity="0"></use></g></g></g></g></svg>